<!--?xml version="1.0" standalone="no"?-->

<svg version="1.0" xmlns="http://www.w3.org/2000/svg" width="300.000000pt" height="300.000000pt" viewBox="0 0 300.000000 300.000000" preserveAspectRatio="xMidYMid meet">
<g transform="translate(0.000000,300.000000) scale(0.100000,-0.100000)" fill="#020202" stroke="none">
<path d="M2265 2921 c-16 -10 -93 -82 -170 -160 l-140 -141 335 -335 335 -335
153 153 c105 105 155 162 161 185 20 71 7 89 -267 366 -142 142 -271 264 -289
272 -44 19 -82 17 -118 -5z" id="node1" class="node"></path>
<path d="M1072 1737 l-763 -764 332 -331 c182 -183 335 -332 338 -332 3 0 350
344 771 765 l765 765 -330 330 c-181 181 -334 330 -340 330 -6 0 -353 -343
-773 -763z" id="node2" class="node"></path>
<path d="M206 848 c-2 -7 -12 -60 -20 -118 -18 -112 -42 -252 -76 -445 -40
-223 -39 -215 -21 -214 9 0 36 4 61 9 46 9 203 36 395 70 61 11 157 27 215 36
58 9 107 19 110 21 5 5 -642 653 -653 653 -4 0 -9 -6 -11 -12z" id="node3" class="node"></path>
</g>
<g transform="translate(0.000000,300.000000) scale(0.100000,-0.100000)" fill="#949494" stroke="none">

</g>
</svg>